<svg width="11" height="13" viewBox="0 0 11 13" fill="none" xmlns="http://www.w3.org/2000/svg">
<path fill-rule="evenodd" clip-rule="evenodd" d="M7.55479 0.541504C7.77904 0.541504 7.96104 0.723504 7.96104 0.947754L7.96129 1.40698C8.75218 1.46121 9.40904 1.73211 9.87394 2.19797C10.3815 2.70768 10.6485 3.44056 10.6458 4.31968V9.26131C10.6458 11.0661 9.49965 12.1874 7.65527 12.1874H3.07385C1.22948 12.1874 0.083313 11.0504 0.083313 9.22014V4.3186C0.083313 2.61625 1.10547 1.52351 2.77252 1.40717L2.77285 0.947754C2.77285 0.723504 2.95485 0.541504 3.1791 0.541504C3.40335 0.541504 3.58535 0.723504 3.58535 0.947754L3.58519 1.3968H7.14827L7.14854 0.947754C7.14854 0.723504 7.33054 0.541504 7.55479 0.541504ZM9.83331 5.3645H0.895813V9.22014C0.895813 10.6101 1.66931 11.3749 3.07385 11.3749H7.65527C9.05981 11.3749 9.83333 10.6241 9.83333 9.26131L9.83331 5.3645ZM7.77563 8.77283C7.99988 8.77283 8.18188 8.95483 8.18188 9.17908C8.18188 9.40333 7.99988 9.58533 7.77563 9.58533C7.55138 9.58533 7.36721 9.40333 7.36721 9.17908C7.36721 8.95483 7.5465 8.77283 7.77075 8.77283H7.77563ZM5.37198 8.77283C5.59623 8.77283 5.77823 8.95483 5.77823 9.17908C5.77823 9.40333 5.59623 9.58533 5.37198 9.58533C5.14773 9.58533 4.96357 9.40333 4.96357 9.17908C4.96357 8.95483 5.14286 8.77283 5.36711 8.77283H5.37198ZM2.9633 8.77283C3.18755 8.77283 3.36955 8.95483 3.36955 9.17908C3.36955 9.40333 3.18755 9.58533 2.9633 9.58533C2.73905 9.58533 2.55434 9.40333 2.55434 9.17908C2.55434 8.95483 2.73418 8.77283 2.95843 8.77283H2.9633ZM7.77563 6.66754C7.99988 6.66754 8.18188 6.84954 8.18188 7.07379C8.18188 7.29804 7.99988 7.48004 7.77563 7.48004C7.55138 7.48004 7.36721 7.29804 7.36721 7.07379C7.36721 6.84954 7.5465 6.66754 7.77075 6.66754H7.77563ZM5.37198 6.66754C5.59623 6.66754 5.77823 6.84954 5.77823 7.07379C5.77823 7.29804 5.59623 7.48004 5.37198 7.48004C5.14773 7.48004 4.96357 7.29804 4.96357 7.07379C4.96357 6.84954 5.14286 6.66754 5.36711 6.66754H5.37198ZM2.9633 6.66754C3.18755 6.66754 3.36955 6.84954 3.36955 7.07379C3.36955 7.29804 3.18755 7.48004 2.9633 7.48004C2.73905 7.48004 2.55434 7.29804 2.55434 7.07379C2.55434 6.84954 2.73418 6.66754 2.95843 6.66754H2.9633ZM7.14827 2.2093H3.58519L3.58535 2.73038C3.58535 2.95463 3.40335 3.13663 3.1791 3.13663C2.95485 3.13663 2.77285 2.95463 2.77285 2.73038L2.77256 2.22159C1.5591 2.32353 0.895813 3.05909 0.895813 4.3186V4.552H9.83331L9.83333 4.3186C9.83548 3.64964 9.65565 3.12964 9.29869 2.77214C8.98534 2.45787 8.52728 2.27018 7.9615 2.22185L7.96104 2.73038C7.96104 2.95463 7.77904 3.13663 7.55479 3.13663C7.33054 3.13663 7.14854 2.95463 7.14854 2.73038L7.14827 2.2093Z" fill="black"/>
</svg>
