<svg width="22" height="22" viewBox="0 0 22 22" fill="none" xmlns="http://www.w3.org/2000/svg">
<path fill-rule="evenodd" clip-rule="evenodd" d="M15.436 0C19.063 0 21.5 2.546 21.5 6.335V15.165C21.5 18.954 19.063 21.5 15.436 21.5H6.064C2.437 21.5 0 18.954 0 15.165V6.335C0 2.546 2.437 0 6.064 0H15.436ZM15.436 1.5H6.064C3.292 1.5 1.5 3.397 1.5 6.335V15.165C1.5 18.103 3.292 20 6.064 20H15.436C18.209 20 20 18.103 20 15.165V6.335C20 3.397 18.209 1.5 15.436 1.5ZM6.1211 8.2025C6.5351 8.2025 6.8711 8.5385 6.8711 8.9525V15.8125C6.8711 16.2265 6.5351 16.5625 6.1211 16.5625C5.7071 16.5625 5.3711 16.2265 5.3711 15.8125V8.9525C5.3711 8.5385 5.7071 8.2025 6.1211 8.2025ZM10.7881 4.9185C11.2021 4.9185 11.5381 5.2545 11.5381 5.6685V15.8115C11.5381 16.2255 11.2021 16.5615 10.7881 16.5615C10.3741 16.5615 10.0381 16.2255 10.0381 15.8115V5.6685C10.0381 5.2545 10.3741 4.9185 10.7881 4.9185ZM15.3784 11.8275C15.7924 11.8275 16.1284 12.1635 16.1284 12.5775V15.8115C16.1284 16.2255 15.7924 16.5615 15.3784 16.5615C14.9644 16.5615 14.6284 16.2255 14.6284 15.8115V12.5775C14.6284 12.1635 14.9644 11.8275 15.3784 11.8275Z" fill="black" fill-opacity="0.6"/>
</svg>
