<svg width="28" height="24" viewBox="0 0 28 24" fill="none" xmlns="http://www.w3.org/2000/svg">
<g filter="url(#filter0_d_588_1181)">
<path d="M14.8357 17.705C14.1697 18.1983 13.4544 18.593 12.6897 18.889C11.9251 19.1603 11.0987 19.296 10.2107 19.296C9.17473 19.296 8.21273 19.111 7.32473 18.741C6.43673 18.3463 5.67206 17.816 5.03073 17.15C4.36473 16.5087 3.83439 15.7563 3.43973 14.893C3.06973 14.005 2.88473 13.0553 2.88473 12.044C2.88473 11.0573 3.06973 10.12 3.43973 9.232C3.80973 8.344 4.34006 7.57933 5.03073 6.938C5.67206 6.272 6.43673 5.754 7.32473 5.384C8.21273 4.98933 9.17473 4.792 10.2107 4.792C11.1234 4.792 11.9744 4.94 12.7637 5.236C13.5531 5.50733 14.2561 5.88967 14.8727 6.383V10.379H12.7637V7.752C12.3937 7.53 11.9867 7.36967 11.5427 7.271C11.1234 7.14767 10.6794 7.086 10.2107 7.086C9.52006 7.086 8.87873 7.197 8.28673 7.419C7.69473 7.641 7.18906 7.96167 6.76973 8.381C6.27639 8.84967 5.89406 9.39233 5.62273 10.009C5.35139 10.6257 5.21573 11.304 5.21573 12.044C5.21573 12.7593 5.33906 13.4253 5.58573 14.042C5.85706 14.6587 6.22706 15.189 6.69573 15.633C7.13973 16.0523 7.65773 16.3977 8.24973 16.669C8.86639 16.9157 9.52006 17.039 10.2107 17.039C10.8274 17.039 11.3947 16.9527 11.9127 16.78C12.4554 16.5827 12.9487 16.299 13.3927 15.929L14.8357 17.705ZM25.9472 19H13.9352C15.1112 17.8427 16.2406 16.7133 17.3232 15.612C18.4246 14.5107 19.4046 13.4373 20.2632 12.392C21.1032 11.3653 21.7752 10.3667 22.2792 9.396C22.8019 8.42533 23.0632 7.50133 23.0632 6.624C23.0632 5.82133 22.9419 5.14933 22.6992 4.608C22.4566 4.06667 22.1486 3.628 21.7752 3.292C21.4019 2.93733 20.9912 2.68533 20.5432 2.536C20.1139 2.38667 19.7126 2.312 19.3392 2.312C18.5552 2.312 17.9206 2.44267 17.4352 2.704C16.9499 2.96533 16.5672 3.292 16.2872 3.684C15.9886 4.09467 15.7832 4.524 15.6712 4.972C15.5592 5.40133 15.5032 5.79333 15.5032 6.148C15.5032 6.78267 15.5966 7.34267 15.7832 7.828C15.9699 8.31333 16.2499 8.752 16.6232 9.144L15.5592 10.208C14.9806 9.79733 14.5326 9.23733 14.2152 8.528C13.8979 7.81867 13.7392 7.02533 13.7392 6.148C13.7392 5.40133 13.8606 4.692 14.1032 4.02C14.3459 3.32933 14.7006 2.732 15.1672 2.228C15.6339 1.724 16.2126 1.32267 16.9032 1.024C17.6126 0.725332 18.4246 0.575999 19.3392 0.575999C20.1606 0.575999 20.9072 0.734665 21.5792 1.052C22.2512 1.35067 22.8299 1.752 23.3152 2.256C23.8006 2.77867 24.1739 3.38533 24.4352 4.076C24.7152 4.76667 24.8552 5.504 24.8552 6.288C24.8552 7.25867 24.6592 8.21067 24.2672 9.144C23.8752 10.0773 23.3712 11.0013 22.7552 11.916C22.1206 12.812 21.4019 13.708 20.5992 14.604C19.8152 15.5 19.0126 16.3867 18.1912 17.264H24.2672V14.52H25.9472V19ZM24.9679 19H23.9739V16.809H23.3789V16.375H23.9739V14.667H24.4149V16.375H25.1639V16.809H24.4149V18.58H24.9679V19Z" fill="#514ED4"/>
</g>
<defs>
<filter id="filter0_d_588_1181" x="0.884726" y="0.576172" width="27.0625" height="22.7197" filterUnits="userSpaceOnUse" color-interpolation-filters="sRGB">
<feFlood flood-opacity="0" result="BackgroundImageFix"/>
<feColorMatrix in="SourceAlpha" type="matrix" values="0 0 0 0 0 0 0 0 0 0 0 0 0 0 0 0 0 0 127 0" result="hardAlpha"/>
<feOffset dy="2"/>
<feGaussianBlur stdDeviation="1"/>
<feComposite in2="hardAlpha" operator="out"/>
<feColorMatrix type="matrix" values="0 0 0 0 0.541667 0 0 0 0 0.541667 0 0 0 0 0.541667 0 0 0 0.25 0"/>
<feBlend mode="normal" in2="BackgroundImageFix" result="effect1_dropShadow_588_1181"/>
<feBlend mode="normal" in="SourceGraphic" in2="effect1_dropShadow_588_1181" result="shape"/>
</filter>
</defs>
</svg>
