<svg width="16" height="20" viewBox="0 0 16 20" fill="none" xmlns="http://www.w3.org/2000/svg">
<path fill-rule="evenodd" clip-rule="evenodd" d="M15.8399 16.1934C15.8399 19.4894 11.3199 19.8704 7.92091 19.8704L7.67767 19.8702C5.51211 19.8649 -9.15527e-05 19.7282 -9.15527e-05 16.1734C-9.15527e-05 12.9447 4.33826 12.5132 7.71139 12.4969L8.16414 12.4966C10.3296 12.5019 15.8399 12.6386 15.8399 16.1934ZM7.92091 13.9964C3.65991 13.9964 1.49991 14.7284 1.49991 16.1734C1.49991 17.6314 3.65991 18.3704 7.92091 18.3704C12.1809 18.3704 14.3399 17.6384 14.3399 16.1934C14.3399 14.7354 12.1809 13.9964 7.92091 13.9964ZM7.92091 0C10.8489 0 13.2299 2.382 13.2299 5.31C13.2299 8.238 10.8489 10.619 7.92091 10.619H7.88891C4.96691 10.61 2.59991 8.227 2.60988 5.307C2.60988 2.382 4.99191 0 7.92091 0ZM7.92091 1.428C5.77991 1.428 4.03789 3.169 4.03789 5.31C4.03091 7.444 5.75991 9.184 7.89191 9.192L7.92091 9.906V9.192C10.0609 9.192 11.8019 7.45 11.8019 5.31C11.8019 3.169 10.0609 1.428 7.92091 1.428Z" fill="black" fill-opacity="0.6"/>
</svg>
